<?xml version="1.0" encoding="utf-8"?>
<svg xmlns="http://www.w3.org/2000/svg" xmlns:xlink="http://www.w3.org/1999/xlink" style="margin: auto; background: rgba(0, 0, 0, 0) none repeat scroll 0% 0%; display: block; shape-rendering: auto;" width="212px" height="212px" viewBox="0 0 100 100" preserveAspectRatio="xMidYMid">
<g transform="rotate(0 50 50)">
  <rect x="49.5" y="24" rx="0.5" ry="5" width="1" height="10" fill="#fe718d">
    <animate attributeName="opacity" values="1;0" keyTimes="0;1" dur="1.5151515151515151s" begin="-1.456876456876457s" repeatCount="indefinite"></animate>
  </rect>
</g><g transform="rotate(13.846153846153847 50 50)">
  <rect x="49.5" y="24" rx="0.5" ry="5" width="1" height="10" fill="#fe718d">
    <animate attributeName="opacity" values="1;0" keyTimes="0;1" dur="1.5151515151515151s" begin="-1.3986013986013985s" repeatCount="indefinite"></animate>
  </rect>
</g><g transform="rotate(27.692307692307693 50 50)">
  <rect x="49.5" y="24" rx="0.5" ry="5" width="1" height="10" fill="#fe718d">
    <animate attributeName="opacity" values="1;0" keyTimes="0;1" dur="1.5151515151515151s" begin="-1.3403263403263403s" repeatCount="indefinite"></animate>
  </rect>
</g><g transform="rotate(41.53846153846154 50 50)">
  <rect x="49.5" y="24" rx="0.5" ry="5" width="1" height="10" fill="#fe718d">
    <animate attributeName="opacity" values="1;0" keyTimes="0;1" dur="1.5151515151515151s" begin="-1.282051282051282s" repeatCount="indefinite"></animate>
  </rect>
</g><g transform="rotate(55.38461538461539 50 50)">
  <rect x="49.5" y="24" rx="0.5" ry="5" width="1" height="10" fill="#fe718d">
    <animate attributeName="opacity" values="1;0" keyTimes="0;1" dur="1.5151515151515151s" begin="-1.2237762237762237s" repeatCount="indefinite"></animate>
  </rect>
</g><g transform="rotate(69.23076923076923 50 50)">
  <rect x="49.5" y="24" rx="0.5" ry="5" width="1" height="10" fill="#fe718d">
    <animate attributeName="opacity" values="1;0" keyTimes="0;1" dur="1.5151515151515151s" begin="-1.1655011655011656s" repeatCount="indefinite"></animate>
  </rect>
</g><g transform="rotate(83.07692307692308 50 50)">
  <rect x="49.5" y="24" rx="0.5" ry="5" width="1" height="10" fill="#fe718d">
    <animate attributeName="opacity" values="1;0" keyTimes="0;1" dur="1.5151515151515151s" begin="-1.1072261072261071s" repeatCount="indefinite"></animate>
  </rect>
</g><g transform="rotate(96.92307692307692 50 50)">
  <rect x="49.5" y="24" rx="0.5" ry="5" width="1" height="10" fill="#fe718d">
    <animate attributeName="opacity" values="1;0" keyTimes="0;1" dur="1.5151515151515151s" begin="-1.048951048951049s" repeatCount="indefinite"></animate>
  </rect>
</g><g transform="rotate(110.76923076923077 50 50)">
  <rect x="49.5" y="24" rx="0.5" ry="5" width="1" height="10" fill="#fe718d">
    <animate attributeName="opacity" values="1;0" keyTimes="0;1" dur="1.5151515151515151s" begin="-0.9906759906759907s" repeatCount="indefinite"></animate>
  </rect>
</g><g transform="rotate(124.61538461538461 50 50)">
  <rect x="49.5" y="24" rx="0.5" ry="5" width="1" height="10" fill="#fe718d">
    <animate attributeName="opacity" values="1;0" keyTimes="0;1" dur="1.5151515151515151s" begin="-0.9324009324009324s" repeatCount="indefinite"></animate>
  </rect>
</g><g transform="rotate(138.46153846153845 50 50)">
  <rect x="49.5" y="24" rx="0.5" ry="5" width="1" height="10" fill="#fe718d">
    <animate attributeName="opacity" values="1;0" keyTimes="0;1" dur="1.5151515151515151s" begin="-0.8741258741258742s" repeatCount="indefinite"></animate>
  </rect>
</g><g transform="rotate(152.30769230769232 50 50)">
  <rect x="49.5" y="24" rx="0.5" ry="5" width="1" height="10" fill="#fe718d">
    <animate attributeName="opacity" values="1;0" keyTimes="0;1" dur="1.5151515151515151s" begin="-0.8158508158508159s" repeatCount="indefinite"></animate>
  </rect>
</g><g transform="rotate(166.15384615384616 50 50)">
  <rect x="49.5" y="24" rx="0.5" ry="5" width="1" height="10" fill="#fe718d">
    <animate attributeName="opacity" values="1;0" keyTimes="0;1" dur="1.5151515151515151s" begin="-0.7575757575757576s" repeatCount="indefinite"></animate>
  </rect>
</g><g transform="rotate(180 50 50)">
  <rect x="49.5" y="24" rx="0.5" ry="5" width="1" height="10" fill="#fe718d">
    <animate attributeName="opacity" values="1;0" keyTimes="0;1" dur="1.5151515151515151s" begin="-0.6993006993006993s" repeatCount="indefinite"></animate>
  </rect>
</g><g transform="rotate(193.84615384615384 50 50)">
  <rect x="49.5" y="24" rx="0.5" ry="5" width="1" height="10" fill="#fe718d">
    <animate attributeName="opacity" values="1;0" keyTimes="0;1" dur="1.5151515151515151s" begin="-0.641025641025641s" repeatCount="indefinite"></animate>
  </rect>
</g><g transform="rotate(207.69230769230768 50 50)">
  <rect x="49.5" y="24" rx="0.5" ry="5" width="1" height="10" fill="#fe718d">
    <animate attributeName="opacity" values="1;0" keyTimes="0;1" dur="1.5151515151515151s" begin="-0.5827505827505828s" repeatCount="indefinite"></animate>
  </rect>
</g><g transform="rotate(221.53846153846155 50 50)">
  <rect x="49.5" y="24" rx="0.5" ry="5" width="1" height="10" fill="#fe718d">
    <animate attributeName="opacity" values="1;0" keyTimes="0;1" dur="1.5151515151515151s" begin="-0.5244755244755245s" repeatCount="indefinite"></animate>
  </rect>
</g><g transform="rotate(235.3846153846154 50 50)">
  <rect x="49.5" y="24" rx="0.5" ry="5" width="1" height="10" fill="#fe718d">
    <animate attributeName="opacity" values="1;0" keyTimes="0;1" dur="1.5151515151515151s" begin="-0.4662004662004662s" repeatCount="indefinite"></animate>
  </rect>
</g><g transform="rotate(249.23076923076923 50 50)">
  <rect x="49.5" y="24" rx="0.5" ry="5" width="1" height="10" fill="#fe718d">
    <animate attributeName="opacity" values="1;0" keyTimes="0;1" dur="1.5151515151515151s" begin="-0.40792540792540793s" repeatCount="indefinite"></animate>
  </rect>
</g><g transform="rotate(263.0769230769231 50 50)">
  <rect x="49.5" y="24" rx="0.5" ry="5" width="1" height="10" fill="#fe718d">
    <animate attributeName="opacity" values="1;0" keyTimes="0;1" dur="1.5151515151515151s" begin="-0.34965034965034963s" repeatCount="indefinite"></animate>
  </rect>
</g><g transform="rotate(276.9230769230769 50 50)">
  <rect x="49.5" y="24" rx="0.5" ry="5" width="1" height="10" fill="#fe718d">
    <animate attributeName="opacity" values="1;0" keyTimes="0;1" dur="1.5151515151515151s" begin="-0.2913752913752914s" repeatCount="indefinite"></animate>
  </rect>
</g><g transform="rotate(290.7692307692308 50 50)">
  <rect x="49.5" y="24" rx="0.5" ry="5" width="1" height="10" fill="#fe718d">
    <animate attributeName="opacity" values="1;0" keyTimes="0;1" dur="1.5151515151515151s" begin="-0.2331002331002331s" repeatCount="indefinite"></animate>
  </rect>
</g><g transform="rotate(304.61538461538464 50 50)">
  <rect x="49.5" y="24" rx="0.5" ry="5" width="1" height="10" fill="#fe718d">
    <animate attributeName="opacity" values="1;0" keyTimes="0;1" dur="1.5151515151515151s" begin="-0.17482517482517482s" repeatCount="indefinite"></animate>
  </rect>
</g><g transform="rotate(318.46153846153845 50 50)">
  <rect x="49.5" y="24" rx="0.5" ry="5" width="1" height="10" fill="#fe718d">
    <animate attributeName="opacity" values="1;0" keyTimes="0;1" dur="1.5151515151515151s" begin="-0.11655011655011654s" repeatCount="indefinite"></animate>
  </rect>
</g><g transform="rotate(332.3076923076923 50 50)">
  <rect x="49.5" y="24" rx="0.5" ry="5" width="1" height="10" fill="#fe718d">
    <animate attributeName="opacity" values="1;0" keyTimes="0;1" dur="1.5151515151515151s" begin="-0.05827505827505827s" repeatCount="indefinite"></animate>
  </rect>
</g><g transform="rotate(346.15384615384613 50 50)">
  <rect x="49.5" y="24" rx="0.5" ry="5" width="1" height="10" fill="#fe718d">
    <animate attributeName="opacity" values="1;0" keyTimes="0;1" dur="1.5151515151515151s" begin="0s" repeatCount="indefinite"></animate>
  </rect>
</g>
<!-- [ldio] generated by https://loading.io/ --></svg>